<svg width="48" height="48" viewBox="0 0 48 48" fill="none" xmlns="http://www.w3.org/2000/svg">
  <g filter="url(#filter0_i_4935_8954)">
    <rect x="5" y="5" width="38" height="38" rx="19" fill="#1762EE" />
  </g>
  <rect x="2.88889" y="2.88889" width="42.2222" height="42.2222" rx="21.1111" stroke="#1762EE" stroke-width="4.22222" />
  <rect x="2.88889" y="2.88889" width="42.2222" height="42.2222" rx="21.1111" stroke="white" stroke-opacity="0.35"
    stroke-width="4.22222" />
  <path
    d="M27.7959 14.6211C28.3359 14.2079 29.1249 14.3243 29.5186 14.8994L29.5195 14.8984L29.665 15.1074C30.2052 15.8881 30.2555 16.9081 29.7949 17.7383L25.8809 24.791L24.7432 26.8428L24.7422 26.8438L21.1445 33.3174C20.6919 34.1312 19.6261 34.3606 18.8789 33.8047C18.5979 33.5956 18.3961 33.2968 18.3076 32.958L18.1943 32.5215C18.0319 31.8994 18.116 31.2385 18.4287 30.6768L20.876 26.2812L26.7041 15.7803C26.7978 15.6114 26.9156 15.4572 27.0547 15.3232L27.6904 14.7109L27.7959 14.6211Z"
    fill="#1762EE" stroke="white" stroke-width="1.66368" />
  <path
    d="M20.8203 33.5444C20.1882 34.6824 18.5509 34.6803 17.9219 33.5405L17.6592 33.0649L14.166 26.7817L14.1641 26.7788L13.4727 25.522C13.0872 24.8217 13.088 23.972 13.4756 23.2729L14.168 22.0239L17.6562 15.7329L18.3193 14.5366C18.7291 13.7977 19.5076 13.3394 20.3525 13.3394H23.2168C24.5018 13.3396 25.315 14.7187 24.6934 15.8433C24.3963 16.3805 23.8307 16.7142 23.2168 16.7144H22.876C22.2095 16.7144 21.7535 17.3872 22 18.0063L22.7676 19.937C22.9796 20.47 22.8548 21.0783 22.4492 21.4839C21.6943 22.2385 20.4092 21.9349 20.0713 20.9224L19.8115 20.145C19.6346 19.6152 18.9024 19.5708 18.6631 20.0757L16.8477 23.9058C16.7094 24.1976 16.7205 24.5383 16.877 24.8208L20.8213 31.937C21.0983 32.4369 21.0977 33.0447 20.8203 33.5444Z"
    fill="#1762EE" stroke="white" stroke-width="1.32227" />
  <path
    d="M27.1904 15.252C27.8226 14.1139 29.4598 14.1161 30.0889 15.2559L30.3516 15.7314L33.8447 22.0146L33.8467 22.0176L34.5381 23.2744C34.9236 23.9747 34.9228 24.8244 34.5352 25.5234L33.8428 26.7725L30.3545 33.0635L29.6914 34.2598C29.2816 34.9986 28.5031 35.457 27.6582 35.457H24.7939C23.509 35.4567 22.6957 34.0777 23.3174 32.9531C23.6145 32.4159 24.18 32.0822 24.7939 32.082H25.1348C25.8012 32.082 26.2572 31.4092 26.0107 30.79L25.2432 28.8594C25.0311 28.3264 25.1559 27.7181 25.5615 27.3125C26.3165 26.5579 27.6016 26.8615 27.9395 27.874L28.1992 28.6514C28.3761 29.1812 29.1084 29.2256 29.3477 28.7207L31.1631 24.8906C31.3013 24.5988 31.2902 24.2581 31.1338 23.9756L27.1895 16.8594C26.9124 16.3595 26.9131 15.7517 27.1904 15.252Z"
    fill="#1762EE" stroke="white" stroke-width="1.32227" />
  <defs>
    <filter id="filter0_i_4935_8954" x="0.777344" y="0.777832" width="46.4453" height="46.4443"
      filterUnits="userSpaceOnUse" color-interpolation-filters="sRGB">
      <feFlood flood-opacity="0" result="BackgroundImageFix" />
      <feBlend mode="normal" in="SourceGraphic" in2="BackgroundImageFix" result="shape" />
      <feColorMatrix in="SourceAlpha" type="matrix" values="0 0 0 0 0 0 0 0 0 0 0 0 0 0 0 0 0 0 127 0"
        result="hardAlpha" />
      <feMorphology radius="3.51852" operator="erode" in="SourceAlpha" result="effect1_innerShadow_4935_8954" />
      <feOffset />
      <feComposite in2="hardAlpha" operator="arithmetic" k2="-1" k3="1" />
      <feColorMatrix type="matrix" values="0 0 0 0 0 0 0 0 0 0 0 0 0 0 0 0 0 0 0.1 0" />
      <feBlend mode="normal" in2="shape" result="effect1_innerShadow_4935_8954" />
    </filter>
  </defs>
</svg>